:SAMPLES-PER-SECOND 30
:FRAME-RANGE 1-2643
:FULLY-SPECIFIED
:DEGREES
579
root  66.8889 33.6415 -4.093 10.9844 7.30649 13.8857
RightUpLeg  -44.763 -8.14524 16.4924
RightLeg  43.7357 -19.3525 -19.0192
RightFoot  -20.5507 -1.69002 -19.0682
RightToes  7.56698e-010 0 -3.6325e-017
Spine  21.8153 -2.7128 -3.37785
Spine1  -17.2411 -2.59735 -5.39222
HEad  0.692771 -22.9253 2.319
LeftShoulder1  -0.614454 5.52453 -24.0716
LeftArm  -16.374 4.65124 -21.7815
LeftForeArm  9.85106 -42.8129 -9.71926
LeftHand  0.0903486 -1.13148 -1.5074
RightShoulder  -2.02697 -8.87918 31.2634
RightArm  -9.80993 -3.78415 7.36301
RightForeArm  -0.490712 28.7172 6.25022
RightHand  -0.445101 1.72123 -7.43005
LeftUpLeg  -3.67619 -2.53341 12.8294
LeftLeg  57.8666 -4.30409 -6.84656
LeftFoot  0.782746 1.99393 -18.6781
LeftToes  1.48244e-010 1.61973e-010 3.308e-011
580
root  67.2233 33.2349 -0.942269 9.07831 4.52039 12.6788
RightUpLeg  -39.4445 -3.91306 17.2104
RightLeg  49.439 -19.2785 -22.7655
RightFoot  -26.2653 -2.46708 -17.3332
RightToes  7.56698e-010 0 -3.6325e-017
Spine  20.828 -1.52388 -0.0581502
Spine1  -13.2165 -0.661749 -7.74365
HEad  -4.33304 -27.7618 5.47239
LeftShoulder1  -0.72375 6.08001 -21.6246
LeftArm  -28.5271 10.6661 -11.6522
LeftForeArm  5.42358 -41.1568 -9.43897
LeftHand  0.110064 -1.01085 -1.90783
RightShoulder  -0.799965 -5.80583 28.1321
RightArm  -20.9964 -1.19325 3.54374
RightForeArm  -1.29969 27.5989 6.02408
RightHand  -0.378068 0.805797 -7.1904
LeftUpLeg  -13.5005 -4.69916 15.8434
LeftLeg  66.0711 0.0953321 0.93267
LeftFoot  -1.64497 0.767092 -8.91595
LeftToes  1.48244e-010 1.61973e-010 3.308e-011
581
root  67.2745 33.3436 2.26679 8.64783 -0.961365 12.3565
RightUpLeg  -31.9921 0.938391 17.3618
RightLeg  49.9751 -20.9941 -24.8701
RightFoot  -31.1509 -2.75506 -14.4812
RightToes  7.56698e-010 0 -3.6325e-017
Spine  19.6843 0.124768 0.202126
Spine1  -12.9148 0.890336 -9.23529
HEad  -5.96739 -31.1207 9.26854
LeftShoulder1  -1.1384 8.22418 -17.3312
LeftArm  -36.2694 19.5871 -5.13587
LeftForeArm  2.9073 -37.9667 -8.56895
LeftHand  0.127075 -1.36457 -2.06702
RightShoulder  0.187807 -2.88176 25.3219
RightArm  -27.5126 2.26694 1.38339
RightForeArm  2.0062 32.8252 7.15818
RightHand  -0.349433 1.35982 -6.15261
LeftUpLeg  -23.6676 -4.14223 16.7732
LeftLeg  67.3165 1.48055 4.64239
LeftFoot  -4.45687 0.511676 -8.05423
LeftToes  1.48244e-010 1.61973e-010 3.308e-011
582
root  67.0381 33.8228 5.46765 7.74298 -7.74835 11.9777
RightUpLeg  -21.8437 5.52757 17.072
RightLeg  45.7364 -21.8388 -22.4949
RightFoot  -33.8821 -2.69052 -12.2909
RightToes  7.56698e-010 0 -3.6325e-017
Spine  19.2845 1.59087 -0.359483
Spine1  -13.5519 2.16874 -11.5529
HEad  -7.89619 -33.5495 14.2838
LeftShoulder1  -1.40376 10.8717 -11.7657
LeftArm  -40.2138 29.7184 -1.04852
LeftForeArm  1.92603 -36.6022 -8.21673
LeftHand  0.107913 -1.00426 -1.87121
RightShoulder  1.17079 0.371885 24.1743
RightArm  -27.9263 5.61711 0.0284288
RightForeArm  7.97302 43.1385 9.96796
RightHand  -0.358656 -0.265947 -8.1435
LeftUpLeg  -30.5495 -2.63549 16.889
LeftLeg  61.7606 0.766669 2.14817
LeftFoot  -6.46084 0.402682 -8.53078
LeftToes  1.48244e-010 1.61973e-010 3.308e-011
583
root  66.6523 34.4227 8.68596 6.82751 -12.5754 12.2086
RightUpLeg  -11.941 6.2027 15.7602
RightLeg  39.5217 -20.568 -17.502
RightFoot  -34.1659 -2.41807 -10.7902
RightToes  7.56698e-010 0 -3.6325e-017
Spine  17.2968 2.6456 -2.1565
Spine1  -11.6162 3.07023 -11.8052
HEad  -10.0272 -36.6465 18.3629
LeftShoulder1  -1.26463 11.9201 -7.29571
LeftArm  -38.2267 39.4531 1.40797
LeftForeArm  2.82397 -38.5319 -8.7491
LeftHand  0.102052 -1.1637 -1.70517
RightShoulder  1.85671 2.97362 22.4723
RightArm  -25.4143 7.64646 0.500987
RightForeArm  16.8754 57.6314 16.4607
RightHand  -0.2905 -0.858063 -7.38783
LeftUpLeg  -35.2246 -1.73984 15.6667
LeftLeg  51.2105 -1.6013 -1.68924
LeftFoot  -7.59873 0.404332 -10.9597
LeftToes  1.48244e-010 1.61973e-010 3.308e-011
584
root  66.1667 34.9093 11.9221 5.94775 -16.0804 11.8453
RightUpLeg  -4.29741 2.47387 13.7272
RightLeg  35.8154 -13.9449 -10.8349
RightFoot  -30.8603 -1.35188 -6.63171
RightToes  7.56698e-010 0 -3.6325e-017
Spine  15.152 3.55763 -4.16798
Spine1  -9.78631 3.61984 -9.64196
HEad  -10.1975 -40.6349 20.8127
LeftShoulder1  -1.11871 11.7423 -5.68594
LeftArm  -31.8573 45.3558 3.95254
LeftForeArm  7.24224 -44.138 -10.3784
LeftHand  0.106381 -1.49835 -1.66365
RightShoulder  2.42759 5.06492 22.0985
RightArm  -20.489 9.06239 2.62453
RightForeArm  38.6202 73.4446 36.5047
RightHand  -0.217162 -0.618419 -5.24576
LeftUpLeg  -36.5005 2.96476 13.4651
LeftLeg  37.9379 -6.93326 -5.41037
LeftFoot  -5.17063 1.15134 -20.5921
LeftToes  1.48244e-010 1.61973e-010 3.308e-011
585
root  65.5959 35.0642 15.0751 5.40546 -19.1028 10.2792
RightUpLeg  -1.02142 -1.28504 12.0816
RightLeg  40.1204 -7.50484 -7.01112
RightFoot  -23.6396 0.000525289 1.49158
RightToes  7.56698e-010 0 -3.6325e-017
Spine  13.6465 3.5152 -3.33621
Spine1  -7.95513 4.00045 -10.3757
HEad  -9.63598 -44.3392 22.3359
LeftShoulder1  -0.946435 10.1871 -6.35799
LeftArm  -25.2018 43.4379 6.27344
LeftForeArm  8.74508 -47.6834 -11.6941
LeftHand  0.143451 -1.47472 -2.30136
RightShoulder  3.28864 7.33583 24.2131
RightArm  -11.979 7.13748 10.2661
RightForeArm  93.7786 80.0133 91.3209
RightHand  -0.211631 -0.975188 -5.48029
LeftUpLeg  -35.5345 9.67114 10.9104
LeftLeg  26.3746 -11.0901 -5.60524
LeftFoot  5.1055 3.53424 -24.3412
LeftToes  1.48244e-010 1.61973e-010 3.308e-011
586
root  64.9569 34.9997 17.9615 4.14178 -22.4527 10.0933
RightUpLeg  -4.2565 -2.08863 10.1623
RightLeg  54.6053 -6.70917 -10.4329
RightFoot  -14.1322 -0.0140821 3.3532
RightToes  7.56698e-010 0 -3.6325e-017
Spine  12.7155 2.6456 -4.67061
Spine1  -4.68031 3.71095 -11.2862
HEad  -10.0285 -45.8584 23.4624
LeftShoulder1  -0.667342 7.32368 -10.0782
LeftArm  -18.8356 35.8872 8.31008
LeftForeArm  7.85562 -44.0473 -10.3025
LeftHand  0.17248 -2.19194 -2.46685
RightShoulder  5.82538 11.3567 33.279
RightArm  0.858462 3.93941 15.8993
RightForeArm  87.4603 79.9029 87.1407
RightHand  -0.312747 -0.119918 -6.9171
LeftUpLeg  -32.5672 12.3987 10.2464
LeftLeg  21.7237 -1.66314 -0.397303
LeftFoot  7.72202 3.40209 -20.356
LeftToes  1.48244e-010 1.61973e-010 3.308e-011
